<svg width="158" height="155" viewBox="0 0 158 155" fill="none" xmlns="http://www.w3.org/2000/svg">
<path d="M142.941 103.729C127.826 139.057 87.93 154.231 56.6705 151.644C48.1354 150.937 30.9626 149.516 17.5539 136.836C-8.19656 112.484 -4.23076 61.5831 20.4198 31.6153C23.5943 27.756 45.5676 1.89952 79.8089 2.24563C104.879 2.49902 122.475 16.6605 124.614 18.4248C127.317 20.6535 133.279 25.9496 138.651 34.3517C151.276 54.0935 152.385 81.6532 142.941 103.729Z" fill="url(#paint0_linear_5108_57407)"/>
<path d="M15.1421 17.0141C15.3996 16.1544 16.6411 16.2113 16.8149 17.0918C18.4952 25.6037 23.6004 47.7855 33.1753 60.0974C48.7657 80.144 57.7285 111.407 45.5588 126.275C45.5588 126.275 -12.9046 110.686 15.1421 17.0141Z" fill="#91B3FA"/>
<path opacity="0.43" d="M15.8494 29.0268C15.849 29.3006 15.8705 29.5267 15.883 29.7707L15.9352 30.4894L16.0557 31.9243C16.1424 32.8799 16.2439 33.8339 16.3454 34.788C16.5552 36.6952 16.7887 38.5996 17.0397 40.502C17.5486 44.3057 18.1605 48.0951 18.8293 51.8745C19.4928 55.6552 20.262 59.4173 21.1107 63.1615C21.9625 66.9048 22.8677 70.6376 23.8952 74.3386C25.9353 81.7431 28.3801 89.0438 31.3309 96.1425C32.8434 99.6755 34.4489 103.171 36.2539 106.566C38.0825 109.946 40.0559 113.251 42.2614 116.396C42.3093 116.465 42.4036 116.481 42.4721 116.433C42.5388 116.387 42.5562 116.296 42.5126 116.228L42.5114 116.226C40.4374 113.009 38.54 109.686 36.8096 106.277C35.0695 102.872 33.5289 99.3698 32.0819 95.8324C30.6363 92.293 29.3336 88.6962 28.1128 85.0724C26.8933 81.4473 25.8244 77.7735 24.7765 74.0947C22.7114 66.7262 21.0408 59.2503 19.5768 51.7359C18.8528 47.9767 18.2045 44.2026 17.6233 40.4178C17.3297 38.5258 17.0535 36.631 16.8007 34.733L16.444 31.8836L16.2804 30.4576L16.2065 29.7445C16.1861 29.5106 16.1602 29.2594 16.1508 29.054L16.1492 29.02C16.1454 28.9373 16.0753 28.8733 15.9926 28.8771C15.9122 28.8808 15.8496 28.9473 15.8494 29.0268Z" fill="white"/>
<path d="M45.4896 0.374517C45.9602 -0.343636 47.0833 0.0472531 47.0025 0.902076C46.2213 9.16638 44.8517 30.9009 50.2737 44.8035C59.1021 67.4403 57.9593 99.7866 42.743 110.101C42.743 110.101 -5.78458 78.6251 45.4896 0.374517Z" fill="#BDD0FB"/>
<path opacity="0.43" d="M42.8587 11.5818C42.7834 11.8334 42.7415 12.0462 42.6862 12.2735L42.5379 12.947L42.2565 14.2956C42.0751 15.1957 41.9078 16.0982 41.7404 17.0008C41.4121 18.807 41.1063 20.6171 40.8171 22.4301C40.2456 26.0571 39.7726 29.6991 39.3543 33.3475C38.9308 36.9956 38.6097 40.6556 38.3664 44.3209C38.1263 47.9861 37.9379 51.6564 37.8704 55.3308C37.7211 62.678 37.9721 70.0403 38.7421 77.3554C39.1658 81.008 39.6852 84.6516 40.4149 88.2572C41.1706 91.8563 42.0795 95.4249 43.2451 98.9112C43.2709 98.9884 43.3544 99.0301 43.4316 99.0042C43.5068 98.9791 43.5484 98.8991 43.5265 98.8236L43.5259 98.8216C42.5028 95.3051 41.67 91.7403 41.014 88.1421C40.3476 84.5453 39.8909 80.9131 39.5294 77.2744C39.1697 73.6345 38.9563 69.9807 38.8257 66.3247C38.6964 62.6677 38.7187 59.0072 38.761 55.3478C38.8769 48.0274 39.3846 40.7161 40.0909 33.4257C40.4519 29.7809 40.8867 26.143 41.3855 22.5136C41.6319 20.6985 41.8951 18.8854 42.1808 17.0759L42.6304 14.3655L42.8689 13.0131L42.9955 12.339C43.0405 12.119 43.0853 11.8813 43.1325 11.6909L43.1404 11.6587C43.1598 11.5804 43.1121 11.5012 43.0338 11.4818C42.9579 11.463 42.881 11.5077 42.8587 11.5818Z" fill="white"/>
<path d="M136.398 25.6197C136.398 20.685 132.397 16.6846 127.463 16.6846H51.4782C47.2862 16.6846 43.8296 19.9697 43.6164 24.1563L38.0077 134.32C37.8409 137.596 40.4198 140.359 43.6997 140.419L130.787 142.002C133.869 142.058 136.398 139.575 136.398 136.492L136.398 25.6197Z" fill="url(#paint1_linear_5108_57407)"/>
<path d="M118.059 140.129C118.059 140.129 118.061 140.129 118.062 140.129L127.806 140.003C131.065 139.961 133.716 137.276 133.716 134.017V119.305C133.716 119.19 133.622 119.097 133.508 119.097C133.393 119.097 133.3 119.19 133.3 119.305V134.017C133.3 137.049 130.833 139.548 127.801 139.587L118.056 139.713C117.942 139.715 117.85 139.809 117.851 139.924C117.853 140.038 117.945 140.129 118.059 140.129Z" fill="#91B3FA"/>
<path d="M133.508 114.955C133.623 114.955 133.716 114.862 133.716 114.747V112.364C133.716 112.249 133.623 112.156 133.508 112.156C133.393 112.156 133.3 112.249 133.3 112.364V114.747C133.3 114.862 133.393 114.955 133.508 114.955Z" fill="#91B3FA"/>
<path d="M130.173 18.3802C130.182 16.8014 128.794 15.5794 127.229 15.7916C116.853 17.1987 81.1713 21.5507 51.6702 19.2861C50.3248 19.1828 49.1573 20.2022 49.0857 21.5496L43.2046 132.204C43.124 133.721 44.2826 135.019 45.7993 135.108C58.2069 135.843 109.305 138.681 127.531 136.772C128.641 136.656 129.483 135.722 129.489 134.607L130.173 18.3802Z" fill="url(#paint2_linear_5108_57407)"/>
<path d="M128.951 21.1529C128.959 19.6335 127.623 18.4576 126.118 18.6618C116.132 20.0159 81.794 24.204 53.4038 22.0246C52.1091 21.9252 50.9855 22.9062 50.9166 24.2029L45.257 130.69C45.1794 132.151 46.2944 133.399 47.754 133.486C59.6944 134.192 108.869 136.924 126.408 135.087C127.476 134.975 128.286 134.076 128.293 133.003L128.951 21.1529Z" fill="#91B3FA"/>
<path d="M88.0139 28.5054L86.8508 51.3353C86.8121 52.0946 86.1394 52.6984 85.306 52.7198C80.669 52.8391 66.2198 53.1604 58.0612 52.7726C57.1383 52.7287 56.4083 52.048 56.3776 51.2058C56.2221 46.9243 55.8816 34.4628 56.9516 29.2535C57.1245 28.412 57.9177 27.7954 58.856 27.7656L86.2641 26.8916C87.2525 26.8601 88.0598 27.6047 88.0139 28.5054Z" fill="url(#paint3_linear_5108_57407)"/>
<g opacity="0.6">
<path d="M91.6315 31.3495C91.1998 31.3495 90.8567 31.0048 90.869 30.5836C90.8813 30.1624 91.2445 29.8114 91.6761 29.8038L119.292 29.3117C119.723 29.3039 119.959 29.6308 119.816 30.038L119.614 30.6092C119.471 31.0163 119 31.3495 118.569 31.3495H91.6315Z" fill="white"/>
</g>
<g opacity="0.6">
<path d="M91.1725 49.4334C90.7408 49.4334 90.3977 49.0888 90.41 48.6676C90.4223 48.2463 90.7855 47.8954 91.2171 47.8878L118.833 47.3956C119.264 47.388 119.5 47.7148 119.357 48.122L119.155 48.6931C119.012 49.1003 118.541 49.4334 118.11 49.4334H91.1725Z" fill="white"/>
</g>
<g opacity="0.6">
<path d="M119.292 33.5685C119.723 33.5608 119.959 33.8877 119.816 34.2948L119.614 34.866C119.471 35.2731 119 35.6063 118.569 35.6063H91.6315C91.1998 35.6063 90.8567 35.2617 90.869 34.8404C90.8813 34.4192 91.2445 34.0683 91.6761 34.0606L119.292 33.5685Z" fill="white"/>
</g>
<g opacity="0.6">
<path d="M119.292 37.8859C119.723 37.8782 119.959 38.205 119.816 38.6122L119.614 39.1834C119.471 39.5905 119 39.9237 118.569 39.9237H91.6315C91.1998 39.9237 90.8567 39.5791 90.869 39.1578C90.8813 38.7366 91.2445 38.3857 91.6761 38.378L119.292 37.8859Z" fill="white"/>
</g>
<g opacity="0.6">
<path d="M119.016 42.4464C119.447 42.4388 119.683 42.7656 119.54 43.1727L119.339 43.7439C119.195 44.1511 118.725 44.4842 118.293 44.4842H91.3556C90.9239 44.4842 90.5808 44.1396 90.5931 43.7184C90.6054 43.2971 90.9686 42.9462 91.4002 42.9385L119.016 42.4464Z" fill="white"/>
</g>
<g opacity="0.6">
<path d="M54.4154 59.6453C53.9837 59.6453 53.6532 59.3006 53.6811 58.8794C53.7089 58.4582 54.0848 58.1107 54.5165 58.1073L118.929 57.5996C119.361 57.5963 119.494 57.8698 119.225 58.2075L118.569 59.0313C118.3 59.369 117.727 59.6453 117.295 59.6453L54.4154 59.6453Z" fill="white"/>
</g>
<g opacity="0.6">
<path d="M118.929 67.3633C119.361 67.3599 119.494 67.6334 119.225 67.9711L118.569 68.7949C118.3 69.1326 117.727 69.409 117.295 69.409H54.4154C53.9837 69.409 53.6532 69.0644 53.6811 68.6431C53.7089 68.2219 54.0848 67.8745 54.5165 67.8711L118.929 67.3633Z" fill="white"/>
</g>
<g opacity="0.6">
<path d="M119.359 77.3701C119.79 77.3668 119.924 77.6402 119.655 77.978L118.999 78.8017C118.73 79.1395 118.157 79.4158 117.725 79.4158H54.8451C54.4134 79.4158 54.0829 79.0711 54.1108 78.6499C54.1386 78.2287 54.5145 77.8812 54.9462 77.8778L119.359 77.3701Z" fill="white"/>
</g>
<g opacity="0.6">
<path d="M121.116 89.1202C120.912 89.7142 120.215 90.1236 119.425 90.1146L54.9873 89.3862C54.2584 89.378 53.6774 88.9076 53.696 88.3406C53.7141 87.7894 54.2933 87.3508 55.002 87.3516L119.444 87.4239C120.582 87.4251 121.41 88.2659 121.116 89.1202Z" fill="white"/>
</g>
<g opacity="0.6">
<path d="M121.062 100.734C120.857 101.328 120.161 101.738 119.37 101.729L54.9329 101C54.204 100.992 53.623 100.522 53.6415 99.9548C53.6596 99.4036 54.2388 98.965 54.9475 98.9658L119.39 99.0381C120.527 99.0394 121.356 99.88 121.062 100.734Z" fill="white"/>
</g>
<g opacity="0.6">
<path d="M121.008 112.347C120.803 112.941 120.107 113.35 119.316 113.341L54.8789 112.613C54.15 112.604 53.569 112.134 53.5876 111.567C53.6057 111.016 54.1849 110.577 54.8936 110.578L119.336 110.65C120.473 110.652 121.302 111.492 121.008 112.347Z" fill="white"/>
</g>
<g opacity="0.6">
<path d="M120.954 123.96C120.749 124.554 120.053 124.963 119.262 124.954L54.8247 124.226C54.0958 124.218 53.5148 123.747 53.5334 123.18C53.5515 122.629 54.1307 122.191 54.8394 122.191L119.281 122.264C120.419 122.265 121.248 123.106 120.954 123.96Z" fill="white"/>
</g>
<path d="M84.6029 12.4845L93.2242 11.7194L93.9487 3.8114C94.0945 2.22018 93.1013 0.740574 91.5687 0.288414C89.8887 -0.207293 87.5022 -0.245156 84.7575 1.66429C79.3748 5.40893 84.6029 12.4845 84.6029 12.4845ZM86.3992 5.89442C86.3992 4.70712 87.3616 3.74465 88.5489 3.74465C89.7361 3.74465 90.6986 4.70712 90.6986 5.89442C90.6986 7.08172 89.7361 8.04413 88.5489 8.04413C87.3616 8.04413 86.3992 7.08172 86.3992 5.89442Z" fill="url(#paint4_linear_5108_57407)"/>
<path d="M92.3441 8.39134C92.2298 8.38076 92.1454 8.27963 92.156 8.16521L92.2714 6.90584C92.2818 6.79126 92.3808 6.70656 92.4975 6.71751C92.6119 6.7281 92.6962 6.82928 92.6857 6.94365L92.5703 8.20302C92.5604 8.31108 92.4697 8.39218 92.3634 8.39218C92.3571 8.39218 92.3506 8.39197 92.3441 8.39134ZM92.5703 5.92334C92.4559 5.91275 92.3716 5.81158 92.3821 5.69721L92.4698 4.74115C92.5906 3.42243 91.7615 2.19472 90.4986 1.82193C89.5357 1.53791 88.5434 1.49749 87.5489 1.70104C87.4355 1.72336 87.3264 1.65144 87.3033 1.53911C87.2803 1.42656 87.3528 1.31642 87.4653 1.29347C88.527 1.07568 89.5873 1.11913 90.6163 1.42286C92.0692 1.85171 93.023 3.2631 92.884 4.77891L92.7964 5.73497C92.7865 5.84303 92.6958 5.92412 92.5895 5.92412C92.5831 5.92418 92.5768 5.92397 92.5703 5.92334Z" fill="#91B3FA"/>
<path d="M104.991 16.8298V12.854C104.991 11.4815 103.853 10.3822 102.482 10.4292L75.0695 11.3684C73.853 11.4101 72.8678 12.3703 72.795 13.5854L72.5659 17.4056L104.991 16.8298Z" fill="url(#paint5_linear_5108_57407)"/>
<path d="M94.7696 11.9278H95.9484C96.0633 11.9278 96.1564 11.8348 96.1564 11.7198C96.1564 11.6048 96.0633 11.5117 95.9484 11.5117H94.7696C94.6547 11.5117 94.5615 11.6048 94.5615 11.7198C94.5615 11.8348 94.6547 11.9278 94.7696 11.9278Z" fill="#91B3FA"/>
<path d="M103.507 15.5818C103.622 15.5818 103.715 15.4887 103.715 15.3738V13.7654C103.715 12.5226 102.704 11.5117 101.461 11.5117H97.1272C97.0123 11.5117 96.9192 11.6048 96.9192 11.7198C96.9192 11.8348 97.0123 11.9278 97.1272 11.9278H101.461C102.475 11.9278 103.299 12.7522 103.299 13.7654V15.3738C103.299 15.4888 103.392 15.5818 103.507 15.5818Z" fill="#91B3FA"/>
<path d="M116.16 17.8344C116.094 16.4576 114.959 15.3753 113.58 15.3753L65.645 15.374C63.9214 15.374 62.4478 16.6144 62.1538 18.3127L62.1133 18.5471C61.7912 20.4073 63.2235 22.1088 65.1114 22.1088H114.29C115.42 22.1088 116.32 21.1641 116.266 20.0355L116.16 17.8344Z" fill="url(#paint6_linear_5108_57407)"/>
<path d="M60.8887 103.919C60.8823 103.753 60.1609 87.2557 52.9525 81.3158C50.8167 79.5559 48.2935 78.8864 45.4532 79.3261C39.4752 80.2513 35.3408 84.6489 33.1649 92.397C31.53 98.2183 31.6822 103.843 31.684 103.9L31.1342 103.917C31.1325 103.86 30.9771 98.1615 32.6321 92.2601C33.6078 88.7808 35.0129 85.9085 36.8083 83.723C39.0664 80.9745 41.9468 79.3122 45.3692 78.7825C48.3711 78.318 51.0407 79.0276 53.3028 80.8918C56.4156 83.4572 58.7312 88.1131 60.185 94.7304C61.2631 99.6374 61.4367 103.855 61.4383 103.897L60.8887 103.919Z" fill="url(#paint7_linear_5108_57407)"/>
<path d="M8.56164 149.751L15.8682 101.588C15.938 101.128 16.3297 100.786 16.7949 100.778L59.0138 100.08L68.1462 154.452H12.1557C9.7807 154.452 8.21504 152.1 8.56164 149.751Z" fill="url(#paint8_linear_5108_57407)"/>
<path d="M67.1535 100.773L59.0137 100.08L68.1461 154.452L77.1615 154.22C78.0514 154.197 78.703 153.373 78.5203 152.502L67.7841 101.291C67.7016 101.004 67.4507 100.798 67.1535 100.773Z" fill="url(#paint9_linear_5108_57407)"/>
<path d="M51.7872 103.744C51.7807 103.578 51.0594 87.0809 43.8509 81.141C41.7153 79.3811 39.1921 78.7118 36.3517 79.1513C30.3737 80.0765 26.2393 84.4741 24.0633 92.2222C22.4284 98.0435 22.5807 103.669 22.5824 103.725L22.0327 103.742C22.0309 103.685 21.8755 97.9867 23.5305 92.0853C24.5062 88.606 25.9113 85.7337 27.7068 83.5482C29.9649 80.7997 32.8452 79.1374 36.2676 78.6077C39.2697 78.1432 41.9392 78.8528 44.2013 80.717C47.3141 83.2823 49.6296 87.9383 51.0834 94.5556C52.1615 99.4626 52.3351 103.681 52.3367 103.723L51.7872 103.744Z" fill="url(#paint10_linear_5108_57407)"/>
<path d="M135.319 46.5793L152.921 32.8083C152.985 32.7585 153.032 32.6904 153.055 32.6131L154.148 29.0458C154.177 28.9496 154.242 28.8683 154.33 28.8187L155.039 28.4156C155.11 28.3755 155.191 28.3583 155.272 28.3661L157.478 28.5809C157.656 28.5982 157.8 28.7335 157.828 28.91L157.995 29.942C158.011 30.0425 157.988 30.1453 157.93 30.229L157.634 30.6567C157.549 30.7795 157.541 30.9399 157.613 31.0709C157.693 31.2169 157.674 31.3978 157.563 31.5219C157.198 31.9289 156.279 32.8288 154.807 33.4595C154.756 33.481 154.71 33.513 154.673 33.5533L137.804 51.3026C137.654 51.4656 135.13 46.7263 135.319 46.5793Z" fill="url(#paint11_linear_5108_57407)"/>
<path d="M155.509 31.4792C155.494 31.4792 155.479 31.4756 155.465 31.468C155.421 31.4438 155.405 31.3884 155.429 31.3444C155.451 31.3045 155.973 30.3724 156.628 30.5732C157.141 30.731 157.284 30.6719 157.286 30.6714C157.328 30.6436 157.381 30.6568 157.409 30.6988C157.436 30.7405 157.422 30.7991 157.38 30.827C157.339 30.854 157.162 30.9279 156.574 30.7473C156.06 30.5881 155.593 31.4237 155.589 31.4321C155.572 31.4622 155.541 31.4792 155.509 31.4792Z" fill="url(#paint12_linear_5108_57407)"/>
<path d="M135.368 46.5371L127.414 53.2026L129.876 58.8934L138.814 50.6243C137.088 49.4398 135.889 48.093 135.368 46.5371Z" fill="url(#paint13_linear_5108_57407)"/>
<path d="M83.3302 115.22C83.4052 114.212 83.7344 113.503 84.0854 113.02C83.3347 113.265 83.0521 113.823 82.8773 115.315C82.6693 117.089 82.2968 121.894 82.1988 122.958C82.1008 124.021 82.5392 124.542 82.8773 124.888C82.9885 125.002 83.1636 124.949 83.3699 124.788C82.9481 124.249 82.7797 123.699 82.6954 123.246C82.5624 122.532 83.1555 117.568 83.3302 115.22Z" fill="url(#paint14_linear_5108_57407)"/>
<path d="M88.239 113.825L86.9347 112.135C86.9347 112.135 85.683 112.731 84.5628 112.908C84.3845 112.936 84.2274 112.972 84.0853 113.019C83.7342 113.502 83.405 114.211 83.3301 115.219C83.1555 117.567 82.5623 122.531 82.6953 123.245C82.7796 123.698 82.948 124.248 83.3698 124.787C83.7904 124.457 84.3428 123.666 84.7617 122.858C85.3861 121.654 87.5015 118.05 87.9975 116.705C88.4934 115.359 88.239 113.825 88.239 113.825Z" fill="url(#paint15_linear_5108_57407)"/>
<path d="M105.986 98.4649C106.227 97.4833 106.669 96.8383 107.095 96.4199C106.314 96.5374 105.943 97.041 105.524 98.4835C105.025 100.199 103.863 104.877 103.59 105.909C103.318 106.942 103.664 107.528 103.94 107.925C104.031 108.056 104.212 108.033 104.442 107.907C104.116 107.306 104.041 106.736 104.032 106.275C104.019 105.549 105.426 100.752 105.986 98.4649Z" fill="url(#paint16_linear_5108_57407)"/>
<path d="M111.058 97.9017L110.052 96.0186C110.052 96.0186 108.719 96.3995 107.585 96.3883C107.404 96.3865 107.243 96.3964 107.095 96.4187C106.669 96.8371 106.227 97.4821 105.986 98.4637C105.426 100.751 104.019 105.548 104.032 106.274C104.041 106.735 104.116 107.305 104.442 107.906C104.912 107.651 105.587 106.962 106.134 106.235C106.949 105.151 109.632 101.946 110.344 100.701C111.055 99.4565 111.058 97.9017 111.058 97.9017Z" fill="url(#paint17_linear_5108_57407)"/>
<path d="M88.2387 109.712C88.0102 110.012 86.3437 113.043 85.9831 113.701C85.9225 113.811 85.8823 113.93 85.8672 114.055C85.8259 114.397 85.8607 115.049 86.5784 115.525C87.0174 115.816 87.6081 115.716 87.9267 115.296L90.9551 111.309L88.2387 109.712Z" fill="url(#paint18_linear_5108_57407)"/>
<path d="M111.739 93.8447C111.464 94.1023 109.319 96.8164 108.854 97.4052C108.776 97.504 108.717 97.615 108.681 97.7358C108.584 98.0657 108.511 98.7151 109.14 99.3029C109.525 99.6625 110.124 99.6614 110.507 99.3004L113.764 95.5426L111.739 93.8447Z" fill="url(#paint19_linear_5108_57407)"/>
<path d="M115.821 79.5499C115.821 78.7085 120.649 79.0074 124.881 78.5182C127.104 78.2613 128.422 80.9341 126.864 82.541L114.047 95.7677C113.779 96.0445 113.376 96.1487 113.01 96.0293C112.506 95.8652 111.777 95.5639 111.129 95.0532C110.75 94.755 110.683 94.2063 110.959 93.8121L116.851 85.4231L111.476 86.9736L91.0778 112.205C90.7408 112.622 90.1465 112.721 89.6924 112.436C89.092 112.059 88.2919 111.492 87.7641 110.864C87.4857 110.533 87.4677 110.055 87.7047 109.693C89.9551 106.254 102.184 87.5218 102.764 85.5761C103.403 83.4328 105.75 79.5078 107.944 79.3679C110.138 79.228 115.821 79.5499 115.821 79.5499Z" fill="url(#paint20_linear_5108_57407)"/>
<path d="M117.174 85.312C117.113 85.312 117.058 85.2717 117.042 85.2105C117.022 85.1376 117.066 85.0629 117.139 85.0435L121.974 83.7614C122.048 83.7422 122.122 83.7855 122.141 83.8583C122.161 83.9312 122.117 84.0059 122.044 84.0253L117.209 85.3074C117.197 85.3106 117.185 85.312 117.174 85.312Z" fill="url(#paint21_linear_5108_57407)"/>
<path d="M111.956 86.6204C111.923 86.6204 111.89 86.6085 111.864 86.5843C111.808 86.5332 111.805 86.4468 111.856 86.3914L113.064 85.0821C113.115 85.0265 113.201 85.0233 113.257 85.0743C113.312 85.1254 113.315 85.2118 113.264 85.2671L112.057 86.5765C112.03 86.6057 111.993 86.6204 111.956 86.6204Z" fill="url(#paint22_linear_5108_57407)"/>
<path d="M129.876 52.9621C129.876 52.9621 132.431 55.5713 131.992 60.0721C131.862 61.3964 131.344 62.6538 130.529 63.7056L117.63 80.3482C117.333 80.7321 116.895 80.9824 116.413 81.0415C114.516 81.2742 109.471 81.729 105.901 80.5462C105.617 80.4521 105.493 80.118 105.641 79.8579L117.367 59.2257L124.469 50.9618C124.469 50.9618 127.854 49.7985 129.876 52.9621Z" fill="url(#paint23_linear_5108_57407)"/>
<path d="M92.8054 71.6083C92.7344 71.6083 92.6656 71.5705 92.6293 71.5037C92.5765 71.4067 92.6125 71.285 92.7096 71.2323C92.7594 71.2051 97.7062 68.5116 98.7551 67.6436C98.8402 67.5731 98.9663 67.5851 99.037 67.6702C99.1074 67.7555 99.0957 67.8816 99.0104 67.9521C97.9317 68.8447 93.1057 71.4726 92.9008 71.584C92.8705 71.6005 92.8376 71.6083 92.8054 71.6083Z" fill="url(#paint24_linear_5108_57407)"/>
<path d="M130.496 45.2026L126.641 50.6451C126.391 50.9988 126.425 51.4786 126.721 51.795C127.241 52.3493 128.116 53.1304 129.06 53.3088C129.354 53.3642 129.652 53.2412 129.815 52.9912L131.865 49.8446C131.865 49.8446 132.257 44.9018 130.496 45.2026Z" fill="url(#paint25_linear_5108_57407)"/>
<path d="M131.584 40.6534C131.662 40.7268 134.873 47.0319 134.873 47.0319L131.233 48.7887L127.302 43.2649C127.302 43.2649 130.279 39.4254 131.584 40.6534Z" fill="url(#paint26_linear_5108_57407)"/>
<path d="M128.956 43.9282L130.771 46.9537C130.799 46.9996 130.832 47.0411 130.871 47.0776C131.087 47.2788 131.826 47.8637 132.398 47.0673C132.885 46.3885 133.342 45.7714 133.831 45.5169C134.117 45.3683 134.469 45.487 134.614 45.7747C134.914 46.3674 135.493 47.5756 135.857 48.7212C135.948 49.0083 135.8 49.3166 135.52 49.4297C134.784 49.7283 133.327 50.2682 132.035 50.4465C131.823 50.4758 131.612 50.3863 131.486 50.2132C130.93 49.4515 129.363 47.3229 128.828 46.7901C128.331 46.295 127.414 46.4817 127.001 46.6004C126.844 46.6455 126.677 46.6238 126.537 46.5396C126.118 46.287 125.386 45.6582 126.056 44.5935C126.222 44.3287 126.137 43.9761 125.876 43.8043C125.408 43.4964 124.9 42.9184 125.384 41.9824C125.874 41.0348 126.748 40.9498 127.344 41.0226C127.608 41.0548 127.876 40.9166 127.977 40.6709C128.08 40.4214 128.355 40.5188 128.488 40.3487C128.605 40.1996 128.573 40.0961 128.648 39.9634C128.887 39.5389 128.871 39.1976 129.421 38.9555C129.848 38.7679 130.334 38.7618 130.794 38.837C131.049 38.8787 131.307 38.9477 131.514 39.1022C131.699 39.2401 131.83 39.4364 131.957 39.6286C132.222 40.0287 132.498 40.5135 132.324 40.9608C132.062 41.6348 130.94 41.7587 130.346 41.9676C129.609 42.2271 129.198 42.6805 128.913 43.4184C128.848 43.5863 128.864 43.7738 128.956 43.9282Z" fill="url(#paint27_linear_5108_57407)"/>
<path d="M129.51 47.9006C129.51 47.9006 128.812 45.8577 127.918 45.9327C127.024 46.0077 126.321 46.898 127.428 47.8989C128.806 49.1439 129.51 47.9006 129.51 47.9006Z" fill="url(#paint28_linear_5108_57407)"/>
<path d="M143.4 76.9799V63.4089C143.4 61.6259 141.967 60.1751 140.184 60.1557C134.834 60.0974 123.797 60.0945 114.767 60.8555C113.535 60.9593 112.577 61.9693 112.532 63.205L111.688 76.3254C111.625 78.0608 112.997 79.5107 114.734 79.5437L140.292 80.0294C141.999 80.0618 143.4 78.687 143.4 76.9799Z" fill="url(#paint29_linear_5108_57407)"/>
<path opacity="0.37" d="M128.793 71.7103L125.119 72.1066C124.605 72.1621 124.167 71.7382 124.204 71.2225L125.008 60.295C126.547 60.2462 128.066 60.2106 129.532 60.1855V70.8868C129.532 71.3099 129.213 71.6649 128.793 71.7103Z" fill="white"/>
<path d="M127.287 69.8167C127.276 70.0133 127.113 70.1648 126.918 70.1648C126.911 70.1648 126.904 70.1646 126.897 70.1641C126.693 70.1523 126.537 69.9777 126.549 69.774L127.103 60.2369C127.352 60.2307 127.598 60.2252 127.844 60.2197L127.287 69.8167Z" fill="white"/>
<path d="M133.027 40.8644C129.937 35.0288 121.93 40.3302 125.656 45.2462C128.427 43.4039 131.558 40.6652 133.027 40.8644Z" fill="url(#paint30_linear_5108_57407)"/>
<path d="M126.861 59.7923L119.92 56.2354C119.92 56.2354 114.965 61.1203 113.697 67.7609C115.154 67.8682 117.804 68.247 120.398 69.5569C120.968 66.4213 126.861 59.7923 126.861 59.7923Z" fill="url(#paint31_linear_5108_57407)"/>
<path d="M132.575 71.3928C132.575 71.3928 123.92 76.2839 121 72.1075C120.394 71.2403 120.249 70.3784 120.398 69.5568C117.804 68.2469 115.154 67.8681 113.697 67.7607C113.315 69.7626 113.517 71.8918 114.693 74.0438C119.809 83.4008 133.72 73.5266 133.72 73.5266L132.575 71.3928Z" fill="url(#paint32_linear_5108_57407)"/>
<path d="M132.986 73.8828C132.433 74.0292 131.874 73.6675 131.764 73.1067C131.591 72.2296 131.378 70.8843 131.549 70.2652C131.815 69.3054 132.329 68.0713 134.043 68.3455C135.757 68.6197 137.779 69.3417 137.779 69.3417C137.779 69.3417 137.677 70.592 136.374 70.1887L137.182 70.8138C137.182 70.8138 137.067 71.8148 135.966 71.28L136.718 72.1089C136.718 72.1089 136.245 72.9311 135.435 72.4038C134.768 71.9689 134.387 73.5114 132.986 73.8828Z" fill="url(#paint33_linear_5108_57407)"/>
<path d="M89.3289 72.6593C89.028 72.7161 88.8667 73.0471 89.0028 73.3214C89.628 74.582 91.4706 77.3632 95.2662 76.4863C100.127 75.3635 114.954 64.156 118.311 61.0939C121.668 58.0318 126.113 54.2166 128.288 54.749C130.463 55.2815 129.151 54.0213 127.645 53.01C126.138 51.9987 125.579 50.514 126.7 50.7914C126.7 50.7914 123.995 49.9135 119.863 52.1905C115.826 54.4158 96.1103 62.0227 89.5097 59.8203C89.2655 59.7388 89.0072 59.8959 88.9629 60.1496C88.7001 61.653 88.3017 66.36 92.16 71.6557C92.16 71.6557 90.6565 72.4088 89.3289 72.6593Z" fill="url(#paint34_linear_5108_57407)"/>
<path d="M128.201 43.3361L133.748 43.1645C133.889 43.1602 134.018 43.0822 134.086 42.9589C134.583 42.0615 135.31 41.4897 136.22 41.1757C136.335 41.1359 136.311 40.9663 136.189 40.958L132.788 40.7267C132.784 40.7265 132.781 40.7265 132.777 40.7268C131.082 40.8571 129.581 41.8769 128.15 43.213C128.102 43.2576 128.135 43.3381 128.201 43.3361Z" fill="url(#paint35_linear_5108_57407)"/>
<defs>
<linearGradient id="paint0_linear_5108_57407" x1="158.269" y1="171.386" x2="48.274" y2="52.6613" gradientUnits="userSpaceOnUse">
<stop stop-color="#DAE3FE"/>
<stop offset="1" stop-color="#E9EFFD"/>
</linearGradient>
<linearGradient id="paint1_linear_5108_57407" x1="87.231" y1="134.602" x2="94.2195" y2="-72.2596" gradientUnits="userSpaceOnUse">
<stop stop-color="#09005D"/>
<stop offset="1" stop-color="#1A0F91"/>
</linearGradient>
<linearGradient id="paint2_linear_5108_57407" x1="146.478" y1="163.595" x2="57.8585" y2="32.8506" gradientUnits="userSpaceOnUse">
<stop stop-color="#4F52FF"/>
<stop offset="1" stop-color="#4042E2"/>
</linearGradient>
<linearGradient id="paint3_linear_5108_57407" x1="56.2007" y1="39.9245" x2="88.0158" y2="39.9245" gradientUnits="userSpaceOnUse">
<stop stop-color="#DAE3FE"/>
<stop offset="1" stop-color="#E9EFFD"/>
</linearGradient>
<linearGradient id="paint4_linear_5108_57407" x1="76.28" y1="-9.67771" x2="111.23" y2="36.2984" gradientUnits="userSpaceOnUse">
<stop stop-color="#09005D"/>
<stop offset="1" stop-color="#1A0F91"/>
</linearGradient>
<linearGradient id="paint5_linear_5108_57407" x1="72.4462" y1="-6.76358" x2="107.396" y2="39.2126" gradientUnits="userSpaceOnUse">
<stop stop-color="#09005D"/>
<stop offset="1" stop-color="#1A0F91"/>
</linearGradient>
<linearGradient id="paint6_linear_5108_57407" x1="76.8507" y1="-3.95069" x2="100.983" y2="40.3612" gradientUnits="userSpaceOnUse">
<stop stop-color="#4F52FF"/>
<stop offset="1" stop-color="#4042E2"/>
</linearGradient>
<linearGradient id="paint7_linear_5108_57407" x1="45.9835" y1="104.79" x2="39.3834" y2="157.316" gradientUnits="userSpaceOnUse">
<stop stop-color="#09005D"/>
<stop offset="1" stop-color="#1A0F91"/>
</linearGradient>
<linearGradient id="paint8_linear_5108_57407" x1="61.6884" y1="104.417" x2="16.5868" y2="158.258" gradientUnits="userSpaceOnUse">
<stop stop-color="#FF928E"/>
<stop offset="1" stop-color="#FE7062"/>
</linearGradient>
<linearGradient id="paint9_linear_5108_57407" x1="133.302" y1="76.3525" x2="68.7502" y2="126.81" gradientUnits="userSpaceOnUse">
<stop stop-color="#FF928E"/>
<stop offset="1" stop-color="#FE7062"/>
</linearGradient>
<linearGradient id="paint10_linear_5108_57407" x1="37.0018" y1="103.661" x2="30.4017" y2="156.187" gradientUnits="userSpaceOnUse">
<stop stop-color="#09005D"/>
<stop offset="1" stop-color="#1A0F91"/>
</linearGradient>
<linearGradient id="paint11_linear_5108_57407" x1="135.309" y1="39.8354" x2="158" y2="39.8354" gradientUnits="userSpaceOnUse">
<stop stop-color="#FEBBBA"/>
<stop offset="1" stop-color="#FF928E"/>
</linearGradient>
<linearGradient id="paint12_linear_5108_57407" x1="155.418" y1="31.0121" x2="157.423" y2="31.0121" gradientUnits="userSpaceOnUse">
<stop stop-color="#FEBBBA"/>
<stop offset="1" stop-color="#FF928E"/>
</linearGradient>
<linearGradient id="paint13_linear_5108_57407" x1="150.673" y1="1.40584" x2="118.92" y2="92.744" gradientUnits="userSpaceOnUse">
<stop stop-color="#09005D"/>
<stop offset="1" stop-color="#1A0F91"/>
</linearGradient>
<linearGradient id="paint14_linear_5108_57407" x1="82.1848" y1="118.984" x2="84.0854" y2="118.984" gradientUnits="userSpaceOnUse">
<stop stop-color="#4F52FF"/>
<stop offset="1" stop-color="#4042E2"/>
</linearGradient>
<linearGradient id="paint15_linear_5108_57407" x1="82.676" y1="118.461" x2="88.3042" y2="118.461" gradientUnits="userSpaceOnUse">
<stop stop-color="#09005D"/>
<stop offset="1" stop-color="#1A0F91"/>
</linearGradient>
<linearGradient id="paint16_linear_5108_57407" x1="103.491" y1="102.216" x2="107.095" y2="102.216" gradientUnits="userSpaceOnUse">
<stop stop-color="#4F52FF"/>
<stop offset="1" stop-color="#4042E2"/>
</linearGradient>
<linearGradient id="paint17_linear_5108_57407" x1="104.032" y1="101.962" x2="111.058" y2="101.962" gradientUnits="userSpaceOnUse">
<stop stop-color="#09005D"/>
<stop offset="1" stop-color="#1A0F91"/>
</linearGradient>
<linearGradient id="paint18_linear_5108_57407" x1="85.8557" y1="112.702" x2="90.9552" y2="112.702" gradientUnits="userSpaceOnUse">
<stop stop-color="#FEBBBA"/>
<stop offset="1" stop-color="#FF928E"/>
</linearGradient>
<linearGradient id="paint19_linear_5108_57407" x1="108.617" y1="96.7083" x2="113.765" y2="96.7083" gradientUnits="userSpaceOnUse">
<stop stop-color="#FEBBBA"/>
<stop offset="1" stop-color="#FF928E"/>
</linearGradient>
<linearGradient id="paint20_linear_5108_57407" x1="136.83" y1="62.1253" x2="103.525" y2="94.3392" gradientUnits="userSpaceOnUse">
<stop stop-color="#09005D"/>
<stop offset="1" stop-color="#1A0F91"/>
</linearGradient>
<linearGradient id="paint21_linear_5108_57407" x1="119.374" y1="84.7226" x2="114.005" y2="89.3638" gradientUnits="userSpaceOnUse">
<stop stop-color="#4F52FF"/>
<stop offset="1" stop-color="#4042E2"/>
</linearGradient>
<linearGradient id="paint22_linear_5108_57407" x1="113.123" y1="85.0242" x2="110.241" y2="89.1497" gradientUnits="userSpaceOnUse">
<stop stop-color="#4F52FF"/>
<stop offset="1" stop-color="#4042E2"/>
</linearGradient>
<linearGradient id="paint23_linear_5108_57407" x1="143.602" y1="-1.05158" x2="111.849" y2="90.2867" gradientUnits="userSpaceOnUse">
<stop stop-color="#09005D"/>
<stop offset="1" stop-color="#1A0F91"/>
</linearGradient>
<linearGradient id="paint24_linear_5108_57407" x1="98.0493" y1="66.8685" x2="93.6387" y2="72.3376" gradientUnits="userSpaceOnUse">
<stop stop-color="#F9C200"/>
<stop offset="0.9964" stop-color="#9B1E5F"/>
</linearGradient>
<linearGradient id="paint25_linear_5108_57407" x1="124.818" y1="52.2348" x2="132.765" y2="47.6298" gradientUnits="userSpaceOnUse">
<stop stop-color="#FEBBBA"/>
<stop offset="1" stop-color="#FF928E"/>
</linearGradient>
<linearGradient id="paint26_linear_5108_57407" x1="130.526" y1="41.8454" x2="132.781" y2="55.1162" gradientUnits="userSpaceOnUse">
<stop stop-color="#FEBBBA"/>
<stop offset="1" stop-color="#FF928E"/>
</linearGradient>
<linearGradient id="paint27_linear_5108_57407" x1="119.531" y1="17.8328" x2="127.763" y2="39.1972" gradientUnits="userSpaceOnUse">
<stop stop-color="#4F52FF"/>
<stop offset="1" stop-color="#4042E2"/>
</linearGradient>
<linearGradient id="paint28_linear_5108_57407" x1="128.57" y1="56.3308" x2="128.169" y2="47.0117" gradientUnits="userSpaceOnUse">
<stop stop-color="#FEBBBA"/>
<stop offset="1" stop-color="#FF928E"/>
</linearGradient>
<linearGradient id="paint29_linear_5108_57407" x1="144.689" y1="55.3716" x2="115.942" y2="80.9828" gradientUnits="userSpaceOnUse">
<stop stop-color="#FF928E"/>
<stop offset="1" stop-color="#FE7062"/>
</linearGradient>
<linearGradient id="paint30_linear_5108_57407" x1="216.997" y1="17.738" x2="195.323" y2="23.5366" gradientUnits="userSpaceOnUse">
<stop stop-color="#E1473D"/>
<stop offset="1" stop-color="#E9605A"/>
</linearGradient>
<linearGradient id="paint31_linear_5108_57407" x1="142.809" y1="-1.32714" x2="111.056" y2="90.0111" gradientUnits="userSpaceOnUse">
<stop stop-color="#09005D"/>
<stop offset="1" stop-color="#1A0F91"/>
</linearGradient>
<linearGradient id="paint32_linear_5108_57407" x1="124.621" y1="68.8634" x2="132.657" y2="53.183" gradientUnits="userSpaceOnUse">
<stop stop-color="#FEBBBA"/>
<stop offset="1" stop-color="#FF928E"/>
</linearGradient>
<linearGradient id="paint33_linear_5108_57407" x1="-125.039" y1="-435.681" x2="-133.075" y2="-451.362" gradientUnits="userSpaceOnUse">
<stop stop-color="#FEBBBA"/>
<stop offset="1" stop-color="#FF928E"/>
</linearGradient>
<linearGradient id="paint34_linear_5108_57407" x1="167.086" y1="14.3432" x2="103.204" y2="61.845" gradientUnits="userSpaceOnUse">
<stop stop-color="#E1473D"/>
<stop offset="1" stop-color="#E9605A"/>
</linearGradient>
<linearGradient id="paint35_linear_5108_57407" x1="50.4483" y1="20.2777" x2="70.4075" y2="25.6174" gradientUnits="userSpaceOnUse">
<stop stop-color="#E1473D"/>
<stop offset="1" stop-color="#E9605A"/>
</linearGradient>
</defs>
</svg>
