<svg width="158" height="161" viewBox="0 0 158 161" fill="none" xmlns="http://www.w3.org/2000/svg">
<path d="M151.375 109.453C135.369 146.866 93.1188 162.935 60.0147 160.195C50.9759 159.447 32.7897 157.942 18.5897 144.514C-8.68023 118.725 -4.48043 64.8201 21.6248 33.0839C24.9866 28.9969 48.2565 1.61464 84.5185 1.98119C111.067 2.24955 129.702 17.2467 131.968 19.115C134.83 21.4753 141.144 27.084 146.833 35.9818C160.202 56.8885 161.378 86.0745 151.375 109.453Z" fill="#CEE9FF"/>
<path d="M7.13156 31.775C7.22309 30.8924 8.43978 30.7187 8.77093 31.542C11.9727 39.5013 21.0219 60.1091 32.5937 70.3044C51.4354 86.9047 65.9067 115.624 56.8254 132.312C56.8254 132.312 -2.84452 127.946 7.13156 31.775Z" fill="#A4D6FF"/>
<path opacity="0.43" d="M10.0333 43.3136C10.0835 43.5797 10.146 43.7953 10.2031 44.0301L10.3864 44.7187L10.7679 46.0903C11.0284 47.0028 11.3029 47.9109 11.5773 48.819C12.1328 50.6331 12.7108 52.4401 13.3053 54.2419C14.5011 57.8433 15.7942 61.4117 17.1407 64.96C18.4823 68.5105 19.9233 72.0235 21.438 75.5045C22.9557 78.984 24.5233 82.4433 26.2038 85.8493C29.551 92.6665 33.2721 99.3082 37.4474 105.66C39.5682 108.814 41.7724 111.913 44.1518 114.878C46.5515 117.825 49.0779 120.672 51.8004 123.321C51.8596 123.379 51.9543 123.377 52.0119 123.318C52.0681 123.26 52.0683 123.169 52.0134 123.111L52.0119 123.11C49.4039 120.367 46.9479 117.488 44.6383 114.496C42.3202 111.509 40.1778 108.39 38.1197 105.221C36.0628 102.049 34.1341 98.7946 32.2801 95.4994C30.427 92.2025 28.7112 88.8306 27.0149 85.4499C23.6502 78.6723 20.6488 71.7177 17.8412 64.6876C16.4448 61.1692 15.1191 57.6222 13.8566 54.0525C13.2226 52.2687 12.6048 50.4789 12.0094 48.6816L11.1375 45.9792L10.7156 44.6241L10.5123 43.945C10.4494 43.7215 10.3779 43.4823 10.3309 43.2845L10.3231 43.2518C10.3042 43.1721 10.2242 43.1228 10.1446 43.1418C10.0674 43.1602 10.0189 43.2363 10.0333 43.3136Z" fill="white"/>
<path d="M33.5455 10.0136C33.8703 9.22913 35.0334 9.40182 35.1125 10.2471C35.8773 18.4197 38.554 39.7867 46.3847 52.2931C59.1348 72.6564 64.5711 102.941 51.6907 115.767C51.6907 115.767 -1.83861 95.4855 33.5455 10.0136Z" fill="#6BBDFF"/>
<path opacity="0.43" d="M33.0561 21.3875C33.0294 21.6457 33.0279 21.8603 33.0161 22.0912L32.9962 22.7728L32.9715 24.1348C32.9612 25.0427 32.965 25.9503 32.9688 26.858C32.9829 28.6732 33.0195 30.4881 33.0728 32.3027C33.1863 35.9317 33.3983 39.557 33.6647 43.1785C33.9259 46.8005 34.2887 50.4153 34.7281 54.0209C35.1706 57.6259 35.6643 61.2261 36.2762 64.8082C37.4858 71.9733 39.0871 79.0794 41.1837 86.0438C42.2689 89.5142 43.4453 92.958 44.8189 96.3262C46.2166 99.6833 47.7575 102.983 49.5326 106.154C49.572 106.225 49.6608 106.25 49.731 106.21C49.7995 106.172 49.825 106.087 49.7899 106.017L49.7889 106.016C48.1468 102.788 46.6804 99.4784 45.3797 96.1038C44.0692 92.7325 42.9558 89.2881 41.9338 85.8199C40.9133 82.3501 40.0324 78.8399 39.2313 75.3123C38.4314 71.7835 37.7783 68.2232 37.1447 64.6605C35.9076 57.5275 35.0528 50.3312 34.3947 43.1186C34.0734 39.5112 33.8251 35.8969 33.6405 32.2791C33.5453 30.4702 33.4667 28.6604 33.4105 26.8498L33.3476 24.1338L33.33 22.776L33.3287 22.0978C33.3318 21.8757 33.3315 21.6366 33.3422 21.443L33.344 21.4103C33.3484 21.3306 33.2874 21.2624 33.2078 21.258C33.1306 21.2538 33.0641 21.3113 33.0561 21.3875Z" fill="white"/>
<path d="M142.656 7.69884C143.166 31.7647 144.819 114.777 144.03 144.194C143.946 147.31 141.811 149.811 139.147 149.913C125.971 150.418 77.6709 151.696 56.1203 150.639C51.6316 150.418 48.0621 146.165 47.969 140.91C47.5211 115.65 46.5331 44.6029 48.8815 12.0561C49.163 8.15657 51.7793 5.05114 55.1079 4.66157C69.4566 2.98237 117.965 -1.12234 136.583 0.291059C139.941 0.546012 142.572 3.76367 142.656 7.69884Z" fill="#004D8B"/>
<path d="M136.776 15.0826C137.486 34.5073 139.723 99.1286 139.013 123.024C138.909 126.517 136.556 129.341 133.573 129.545C121.295 130.386 79.4022 132.239 61.3921 130.552C58.1491 130.248 55.6043 127.18 55.4292 123.38C54.5165 103.563 51.8961 43.3909 52.5766 19.763C52.6852 15.9938 55.181 12.9155 58.392 12.5782C71.6757 11.1829 116.031 9.18616 131.496 8.8399C134.374 8.77548 136.654 11.7198 136.776 15.0826Z" fill="#55B3FF"/>
<path opacity="0.5" d="M104.312 5.70063C104.312 6.43908 103.82 7.04816 103.19 7.08669C100.078 7.27734 91.3112 7.8168 87.3933 8.08272C86.6209 8.13525 86.0146 7.32293 86.1611 6.43401L86.1862 6.28237C86.2862 5.67592 86.7161 5.21936 87.2419 5.16304C89.8901 4.87911 97.8812 4.09198 103.176 4.31306C103.812 4.33965 104.312 4.95618 104.312 5.70063Z" fill="white"/>
<mask id="mask0_5099_8022" style="mask-type:luminance" maskUnits="userSpaceOnUse" x="52" y="8" width="88" height="124">
<path d="M136.776 15.0819C137.486 34.5066 139.723 99.1279 139.013 123.024C138.909 126.516 136.556 129.34 133.573 129.545C121.295 130.385 79.4022 132.239 61.3921 130.552C58.1491 130.248 55.6043 127.179 55.4292 123.379C54.5165 103.562 51.8961 43.3902 52.5766 19.7623C52.6852 15.9931 55.181 12.9148 58.392 12.5775C71.6757 11.1822 116.314 9.45166 131.496 8.8392C134.372 8.72318 136.654 11.7191 136.776 15.0819Z" fill="white"/>
</mask>
<g mask="url(#mask0_5099_8022)">
<path d="M149.429 -2.65039H40.0593V22.8852H149.429V-2.65039Z" fill="url(#paint0_linear_5099_8022)"/>
</g>
<path d="M65.1042 10.5666L60.5984 32.2516L76.2491 32.2818L78.4701 10.249L65.1042 10.5666Z" fill="url(#paint1_linear_5099_8022)"/>
<path d="M56.6776 10.7677L37.6367 32.208L60.5985 32.2523L65.1043 10.5674L56.6776 10.7677Z" fill="url(#paint2_linear_5099_8022)"/>
<path d="M78.4701 10.2492L76.249 32.282L88.2674 32.3052L89.737 9.98145L78.4701 10.2492Z" fill="url(#paint3_linear_5099_8022)"/>
<path d="M103.792 9.64804L105.286 32.3387L117.31 32.3619L114.993 9.38184L103.792 9.64804Z" fill="url(#paint4_linear_5099_8022)"/>
<path d="M128.135 9.06934L114.993 9.38172L117.31 32.3618L132.981 32.392L128.135 9.06934Z" fill="url(#paint5_linear_5099_8022)"/>
<path d="M89.7372 9.98147L88.2676 32.3053L105.286 32.3381L103.792 9.64746L89.7372 9.98147Z" fill="url(#paint6_linear_5099_8022)"/>
<path d="M154.748 32.4344L135.748 8.88867L128.135 9.06964L132.981 32.3923L154.748 32.4344Z" fill="url(#paint7_linear_5099_8022)"/>
<path d="M37.6366 32.208C37.6366 32.208 36.5166 40.1578 46.597 41.1214C56.6775 42.085 60.7097 32.208 60.7097 32.208H37.6366Z" fill="url(#paint8_linear_5099_8022)"/>
<path d="M76.1664 32.208C76.1664 32.208 75.7184 40.8805 68.1021 41.1214C59.5757 41.3911 60.7097 32.208 60.7097 32.208H76.1664Z" fill="white"/>
<path d="M76.1663 32.208H88.2628C88.2628 32.208 88.2628 41.1214 82.2146 41.1214C76.1291 41.1214 76.1663 32.208 76.1663 32.208Z" fill="url(#paint9_linear_5099_8022)"/>
<path d="M154.748 32.4341C154.748 32.4341 157.221 40.1578 147.141 41.1214C137.06 42.085 133.028 32.208 133.028 32.208L154.748 32.4341Z" fill="url(#paint10_linear_5099_8022)"/>
<path d="M117.571 32.208C117.571 32.208 118.019 40.8805 125.636 41.1214C134.162 41.3911 133.028 32.208 133.028 32.208H117.571Z" fill="white"/>
<path d="M117.571 32.208H105.475C105.475 32.208 105.475 41.1214 111.523 41.1214C117.608 41.1214 117.571 32.208 117.571 32.208Z" fill="url(#paint11_linear_5099_8022)"/>
<path d="M88.2629 32.208H105.512C105.512 32.208 104.392 40.8805 96.9994 41.1214C89.607 41.3623 88.2629 32.208 88.2629 32.208Z" fill="white"/>
<path d="M59.7114 50.8001V75.8989C59.7114 78.0094 61.3701 79.7473 63.4783 79.8457L90.6551 80.0545C92.8536 80.1571 94.7122 78.4435 94.788 76.2439L95.6626 50.8834C95.7438 48.5282 93.7584 46.626 91.4088 46.8079L63.3576 46.8609C61.2998 47.0202 59.7114 48.7363 59.7114 50.8001Z" fill="#9ED4FF"/>
<path d="M76.3259 59.0898C76.3815 64.0565 76.1856 66.347 75.9457 67.4615C75.9438 67.4705 75.9292 67.5147 75.912 67.5757C75.6869 68.37 75.7247 68.9318 75.7022 69.2224C75.619 70.2925 74.4884 70.6274 74.6017 71.1219C74.7902 71.9453 77.9866 71.828 77.9866 71.828C80.9061 71.7208 84.8793 71.6695 90.6942 71.7416C90.95 71.6687 91.5062 71.4699 91.7474 70.9689C92.0386 70.364 91.7005 69.671 91.5669 69.3971C90.3432 66.8887 83.4308 67.0082 81.8307 63.7629C81.4935 63.0789 81.2255 61.9071 81.9679 59.9321C80.0872 59.6513 78.2066 59.3706 76.3259 59.0898Z" fill="#0079DA"/>
<path d="M76.0554 64.2442C75.3766 66.0315 74.8369 68.6165 75.7023 69.2232C75.8304 69.313 75.9547 69.338 76.016 69.3406C79.3667 69.4802 88.1225 69.7515 90.6945 69.6368C91.0811 69.6196 91.3338 69.2237 91.1908 68.8641C91.0709 68.5628 90.8396 68.3192 90.545 68.1838C87.6403 66.7105 84.7357 65.2371 81.831 63.7637C81.2561 63.723 80.6184 63.7215 80.5578 63.928C80.4619 64.2542 81.8877 64.8197 81.8211 65.0465C81.7562 65.2679 80.0158 65.1081 76.0554 64.2442Z" fill="#004D8B"/>
<path d="M67.6212 58.3984C68.233 58.6052 69.0049 58.8042 69.9072 58.8962C70.9011 58.9977 71.7652 58.9397 72.4416 58.8411C72.2422 59.4354 72.004 60.3056 71.8949 61.385C71.8713 61.6187 71.766 62.7309 71.9446 64.2612C72.1303 65.8521 72.3864 65.8695 72.4913 67.1924C72.5776 68.2819 72.6616 69.342 72.0937 70.3449C71.597 71.2222 70.8592 71.6007 70.6029 71.7277C70.3121 71.872 69.3865 72.312 68.2672 71.949C68.1379 71.9072 66.8412 71.4613 66.2297 70.0131C65.7536 68.8856 65.9759 67.8214 66.1303 67.0819C66.4279 65.6567 66.8729 65.7866 67.2235 64.4272C67.5557 63.1393 67.2382 62.705 67.4223 60.2237C67.48 59.4487 67.561 58.8158 67.6212 58.3984Z" fill="#0079DA"/>
<path d="M66.9753 70.0128C66.5013 69.4787 66.4083 68.8212 66.2796 67.9112C66.2059 67.3907 66.0846 66.4691 66.379 65.4224C66.5952 64.6537 66.8321 64.5412 66.9753 63.8185C67.1205 63.0862 67.0289 62.4354 66.9256 61.9934C67.5865 62.1894 68.0563 62.1081 68.3668 61.9934C68.9212 61.7885 69.0214 61.458 69.5097 61.4402C69.9266 61.425 70.3765 61.6469 70.6527 61.9934C70.8597 62.2529 70.8201 62.3955 71.0005 62.6016C71.2973 62.9406 71.7743 62.9782 72.1932 62.9335C72.187 63.2916 72.1974 63.8344 72.2926 64.4822C72.5121 65.9748 72.9225 66.2565 72.9883 67.192C73.0652 68.2851 72.6276 69.6449 71.6963 70.3446C70.9684 70.8916 70.1931 70.8443 69.2612 70.7873C68.3896 70.7341 67.571 70.6842 66.9753 70.0128Z" fill="#004D8B"/>
<path d="M105.557 81.5827H128.081C130.704 81.5827 132.872 79.5356 133.021 76.9168L134.4 52.7939C134.562 49.9548 132.303 47.5635 129.46 47.5635H105.213C102.452 47.5635 100.226 49.8221 100.265 52.5823L100.61 76.7052C100.648 79.4101 102.852 81.5827 105.557 81.5827Z" fill="#9ED4FF"/>
<path d="M116.788 59.7387C117.094 59.432 112.029 60.788 112.408 60.6322C110.059 60.9648 107.731 61.8168 105.991 63.4222C107.124 67.4962 109.174 77.8853 109.174 77.8853C111.924 79.3853 117.674 78.3853 117.674 78.3853C119.174 73.6351 121.186 62.711 121.186 62.711L121.263 61.5086C118.022 61.0148 120.058 59.952 116.788 59.7387Z" fill="#279FFF"/>
<path d="M114.434 60.4918C113.71 60.7307 112.91 61.0408 112.065 61.4471C111.418 61.7574 110.835 62.0806 110.315 62.3982C113.585 62.6114 118.022 61.0148 121.263 61.5085L121.686 54.9606C120.293 54.622 118.833 54.386 117.377 54.2256C116.625 55.1796 115.865 56.0845 114.714 56.4681C112.89 56.9592 111.224 55.6727 110.57 53.9336C107.15 53.9839 104.676 54.2829 104.676 54.2829C104.426 56.783 105.674 62.3845 105.674 62.3845C105.767 62.6516 105.874 63.0037 105.991 63.4222C106.692 62.828 107.68 62.1226 108.971 61.5499C111.204 60.5591 113.239 60.4558 114.434 60.4918Z" fill="#0079DA"/>
<path d="M122.173 70.8107C122.512 70.9714 122.793 71.0556 122.938 71.0946C124.077 71.402 125.009 71.1654 125.402 71.0602C125.594 71.0083 125.873 70.9334 126.184 70.8066C126.212 70.1639 126.359 68.9442 127.058 67.8416C127.445 67.2303 128.012 66.7303 128.399 66.4212C128.45 65.6492 128.486 64.7159 128.471 63.6482C128.471 63.6395 128.47 63.6303 128.47 63.6215C128.35 63.7463 128.186 63.9111 128.071 64.0106C126.691 65.2144 124.825 65.1163 123.964 65.0712C123.11 65.0265 121.613 64.9593 120.269 63.9419C120.104 63.8182 119.903 63.6339 119.762 63.501C119.631 64.4835 119.628 65.3351 119.669 66.0132C120.084 66.3335 120.728 66.8366 121.192 67.5697C121.901 68.6881 122.117 70.0417 122.173 70.8107Z" fill="#0079DA"/>
<path d="M130.603 70.1351V70.8199C130.354 72.9718 130.188 74.5376 130.149 75.3343C130.122 75.8975 129.909 76.4409 129.877 77.0039C129.872 77.0956 129.862 77.3204 129.706 77.5074C129.562 77.6798 129.359 77.7416 129.235 77.7668H128.55C123.401 77.9156 119.63 77.9187 118.968 77.7668C118.847 77.7391 118.52 77.6636 118.318 77.3905C118.131 77.1379 118.146 76.8443 118.147 76.6374C118.148 76.0825 117.948 75.545 117.873 74.9948C117.589 72.9158 117.4 72.5379 117.291 70.9225C117.267 70.5668 117.255 70.3892 117.257 70.2038C117.27 68.8769 117.674 68.0006 117.975 67.1238C118.202 66.4657 118.477 65.4909 118.626 64.2148C119.019 63.8103 119.455 63.6039 119.755 63.4961C119.757 63.4981 119.76 63.5002 119.762 63.5028C119.591 64.7918 119.638 65.8549 119.718 66.5977C119.853 67.8477 119.935 68.6171 120.508 69.4312C121.338 70.6104 122.571 70.9944 122.938 71.0934C124.077 71.4009 125.009 71.1648 125.402 71.059C125.887 70.9291 126.928 70.6494 127.633 69.7629C128.014 69.2844 128.219 68.7275 128.369 66.8322C128.436 65.9898 128.489 64.9129 128.471 63.6475L129.782 64.4355L130.124 67.055L130.603 70.1351Z" fill="#004D8B"/>
<path d="M60.6062 90.4692V114.033C60.6062 117.03 62.7876 119.472 65.5012 119.507C72.0376 119.594 83.3634 119.529 89.8172 119.48C92.5056 119.459 94.6672 117.034 94.645 114.066C94.5989 107.873 94.5442 97.7701 94.6194 91.6821C94.656 88.7209 92.5537 86.2666 89.8745 86.1398L65.776 84.9993C62.9574 84.8658 60.6062 87.3535 60.6062 90.4692Z" fill="#9ED4FF"/>
<path d="M71.6777 113.05C71.7899 114.076 71.8528 115.052 71.8903 115.935H77.1221C77.2485 114.813 77.2469 113.798 77.2447 112.507C77.2381 108.86 76.6283 104.219 77.5502 102.73C77.6259 102.608 77.8427 102.258 78.0593 102.289C78.3668 102.333 78.4945 103.12 78.5685 103.647C78.9066 106.054 78.84 107.517 78.84 107.517C78.788 108.66 78.8959 110.248 79.1115 113.423C79.186 114.52 79.238 115.283 79.302 115.935H84.3105C84.2989 114.177 84.277 113.823 84.4409 112.846C84.7441 111.038 85.0351 110.955 85.4932 108.433C85.5747 107.985 85.8513 106.416 86.0024 104.326C86.1737 101.956 86.0948 100.144 86.0363 98.8947C86.0261 98.6774 86.0151 98.4716 86.0035 98.2764C84.5392 99.2257 82.9914 100.104 81.5783 101.185V98.5182C79.2193 99.8515 76.6552 101.595 73.9885 101.082C73.7834 101.082 74.6039 99.8515 75.3219 99.6464C73.0345 99.3605 71.1463 100.62 69.8296 102.381C69.9204 103.606 70.0569 104.589 70.1501 105.242C70.6901 109.028 71.2808 109.421 71.6777 113.05Z" fill="#0079DA"/>
<path d="M72.2449 97.6972C74.9116 96.4664 78.1937 97.3895 81.0655 96.3638C81.1681 96.2613 81.4758 96.0561 81.8861 95.7485C83.4709 94.6513 84.5486 93.228 85.5712 91.7587C85.5271 91.4832 85.4255 91.2291 85.2217 91.0529C84.8799 90.7576 84.3949 90.8027 84.2373 90.8153C82.9641 90.9171 78.3 90.8797 71.7455 90.7814C71.7152 90.774 71.3422 90.69 71.0603 90.9511C70.8488 91.147 70.8315 91.4048 70.829 91.4602C70.3112 93.4206 69.8112 96.0328 69.7428 99.1318C69.7386 99.3194 69.7363 99.504 69.7354 99.6862C70.3573 98.872 71.173 98.1902 72.2449 97.6972Z" fill="#0079DA"/>
<path d="M75.3218 99.6461C74.6038 99.8512 73.7833 101.082 73.9885 101.082C76.6552 101.595 79.2193 99.8512 81.5783 98.5178C81.5783 99.4409 81.5783 100.261 81.5783 101.185C82.9914 100.104 84.5393 99.2254 86.0034 98.276C85.8729 97.3811 85.7635 96.427 85.6871 95.4185C85.5883 94.1159 85.5572 92.8915 85.5711 91.7588C83.9644 94.24 82.2624 95.2846 80.9699 95.7742C78.4325 96.7354 74.1865 96.8025 72.2449 97.6973C71.259 98.1517 70.507 98.8411 70.507 98.8411C70.2212 99.1029 69.9651 99.3856 69.7353 99.6864C69.7302 100.675 69.7702 101.579 69.8295 102.38C71.1463 100.619 73.0344 99.3602 75.3218 99.6461Z" fill="#279FFF"/>
<path d="M101.394 93.1954V115.116C101.394 117.226 103.052 118.964 105.161 119.063L132.337 120.331C134.536 120.433 136.395 118.72 136.47 116.52L137.345 91.1598C137.426 88.8046 135.441 86.9024 133.091 87.0843L105.04 89.256C102.982 89.4153 101.394 91.1315 101.394 93.1954Z" fill="#9ED4FF"/>
<path d="M115.877 108.729L114.512 108.789C114.753 108.551 114.898 108.217 114.882 107.854L114.545 100.185L115.449 100.145L116.366 99.0601L116.302 97.5957L115.299 96.7354L110.766 96.9346L109.829 98.0208L109.889 99.3849L110.916 100.345L112.069 100.294L112.406 107.962C112.412 108.088 112.436 108.209 112.477 108.322L112.501 108.877L111.343 108.928L110.404 109.974L110.464 111.338L111.493 112.338L116.027 112.139L116.95 111.194L116.885 109.73L115.877 108.729Z" fill="url(#paint12_linear_5099_8022)"/>
<path d="M124.618 109.73L123.609 108.729L122.244 108.789C122.485 108.551 122.631 108.217 122.615 107.854L122.278 100.185L123.181 100.145L124.098 99.0601L124.034 97.5957L123.032 96.7354L118.498 96.9346L117.561 98.0208L117.621 99.3849L118.648 100.345L119.801 100.294L120.138 107.962C120.144 108.088 120.169 108.209 120.209 108.322L120.233 108.877L119.075 108.928L118.137 109.974L118.197 111.338L119.225 112.338L123.759 112.139L124.682 111.194L124.618 109.73Z" fill="url(#paint13_linear_5099_8022)"/>
<path d="M115.877 108.729L114.512 108.789C114.753 108.551 114.898 108.217 114.882 107.854L114.545 100.185L115.449 100.145L116.366 99.0601L116.302 97.5957L115.299 96.7354L110.766 96.9346L109.829 98.0208L109.889 99.3849L110.916 100.345L112.069 100.294L112.406 107.962C112.412 108.088 112.436 108.209 112.477 108.322L112.501 108.877L111.343 108.928L110.404 109.974L110.464 111.338L111.493 112.338L116.027 112.139L116.95 111.194L116.885 109.73L115.877 108.729Z" fill="#0079DA"/>
<path d="M124.618 109.73L123.609 108.729L122.244 108.789C122.485 108.551 122.631 108.217 122.615 107.854L122.278 100.185L123.181 100.145L124.098 99.0601L124.034 97.5957L123.032 96.7354L118.498 96.9346L117.561 98.0208L117.621 99.3849L118.648 100.345L119.801 100.294L120.138 107.962C120.144 108.088 120.169 108.209 120.209 108.322L120.233 108.877L119.075 108.928L118.137 109.974L118.197 111.338L119.225 112.338L123.759 112.139L124.682 111.194L124.618 109.73Z" fill="#0079DA"/>
<defs>
<linearGradient id="paint0_linear_5099_8022" x1="93.2122" y1="27.1394" x2="96.3109" y2="-7.29001" gradientUnits="userSpaceOnUse">
<stop stop-color="#A737D5"/>
<stop offset="1" stop-color="#EF497A"/>
</linearGradient>
<linearGradient id="paint1_linear_5099_8022" x1="60.5984" y1="21.2654" x2="78.4701" y2="21.2654" gradientUnits="userSpaceOnUse">
<stop stop-color="#DAE3FE"/>
<stop offset="1" stop-color="#E9EFFD"/>
</linearGradient>
<linearGradient id="paint2_linear_5099_8022" x1="50.9419" y1="30.9238" x2="52.8454" y2="-11.4274" gradientUnits="userSpaceOnUse">
<stop stop-color="#FF928E"/>
<stop offset="1" stop-color="#FE7062"/>
</linearGradient>
<linearGradient id="paint3_linear_5099_8022" x1="82.4837" y1="32.4643" x2="84.3911" y2="-9.97437" gradientUnits="userSpaceOnUse">
<stop stop-color="#FF928E"/>
<stop offset="1" stop-color="#FE7062"/>
</linearGradient>
<linearGradient id="paint4_linear_5099_8022" x1="109.976" y1="33.7969" x2="111.884" y2="-8.66664" gradientUnits="userSpaceOnUse">
<stop stop-color="#FF928E"/>
<stop offset="1" stop-color="#FE7062"/>
</linearGradient>
<linearGradient id="paint5_linear_5099_8022" x1="114.993" y1="20.7307" x2="132.981" y2="20.7307" gradientUnits="userSpaceOnUse">
<stop stop-color="#DAE3FE"/>
<stop offset="1" stop-color="#E9EFFD"/>
</linearGradient>
<linearGradient id="paint6_linear_5099_8022" x1="88.2676" y1="20.9928" x2="105.286" y2="20.9928" gradientUnits="userSpaceOnUse">
<stop stop-color="#DAE3FE"/>
<stop offset="1" stop-color="#E9EFFD"/>
</linearGradient>
<linearGradient id="paint7_linear_5099_8022" x1="140.789" y1="35.2766" x2="142.699" y2="-7.22986" gradientUnits="userSpaceOnUse">
<stop stop-color="#FF928E"/>
<stop offset="1" stop-color="#FE7062"/>
</linearGradient>
<linearGradient id="paint8_linear_5099_8022" x1="44.6183" y1="-53.5285" x2="46.9333" y2="-9.54441" gradientUnits="userSpaceOnUse">
<stop stop-color="#FF928E"/>
<stop offset="1" stop-color="#FE7062"/>
</linearGradient>
<linearGradient id="paint9_linear_5099_8022" x1="77.6056" y1="-55.2647" x2="79.9205" y2="-11.2806" gradientUnits="userSpaceOnUse">
<stop stop-color="#FF928E"/>
<stop offset="1" stop-color="#FE7062"/>
</linearGradient>
<linearGradient id="paint10_linear_5099_8022" x1="145.121" y1="12.5349" x2="142.806" y2="56.519" gradientUnits="userSpaceOnUse">
<stop stop-color="#FF928E"/>
<stop offset="1" stop-color="#FE7062"/>
</linearGradient>
<linearGradient id="paint11_linear_5099_8022" x1="112.653" y1="10.8261" x2="110.338" y2="54.8102" gradientUnits="userSpaceOnUse">
<stop stop-color="#FF928E"/>
<stop offset="1" stop-color="#FE7062"/>
</linearGradient>
<linearGradient id="paint12_linear_5099_8022" x1="152.418" y1="59.5061" x2="135.056" y2="79.569" gradientUnits="userSpaceOnUse">
<stop stop-color="#CB236D"/>
<stop offset="1" stop-color="#4C246D"/>
</linearGradient>
<linearGradient id="paint13_linear_5099_8022" x1="156.839" y1="63.3321" x2="139.477" y2="83.395" gradientUnits="userSpaceOnUse">
<stop stop-color="#CB236D"/>
<stop offset="1" stop-color="#4C246D"/>
</linearGradient>
</defs>
</svg>
